<?xml version="1.0" encoding="UTF-8" standalone="no"?>
<!DOCTYPE svg PUBLIC "-//W3C//DTD SVG 1.1//EN" "http://www.w3.org/Graphics/SVG/1.1/DTD/svg11.dtd">
<svg width="30%" height="30%" viewBox="0 0 250 64" version="1.1" xmlns="http://www.w3.org/2000/svg" xmlns:xlink="http://www.w3.org/1999/xlink" xml:space="preserve" xmlns:serif="http://www.serif.com/" style="fill-rule:evenodd;clip-rule:evenodd;stroke-linejoin:round;stroke-miterlimit:1.41421;">
    <g id="scrumoji" transform="matrix(0.460405,0,0,0.460405,41.4365,0)">
        <g transform="matrix(0.978891,0,0,0.978891,-189.762,-14.0247)">
            <text x="100.06px" y="119.423px" style="font-family:'Avenir-Black', 'Avenir', sans-serif;font-weight:800;font-size:144px;">scrum  ji</text>
        </g>
        <g id="Group" transform="matrix(1,0,0,1,304,32)">
            <circle id="Oval" cx="39" cy="39" r="39" style="fill:rgb(255,221,103);"/>
            <path id="Shape" d="M38,29.4C38,36.5 32.2,42.4 25,42.4C17.8,42.4 12,36.5 12,29.4C12,22.2 17.8,16.4 25,16.4C32.2,16.4 38,22.2 38,29.4Z" style="fill:white;"/>
            <circle id="Oval1" serif:id="Oval" cx="25" cy="29.4" r="5.85" style="fill:rgb(102,78,39);"/>
            <path id="Shape1" serif:id="Shape" d="M63.7,35.3C61.2,30 57.6,27.3 54,27.3C50.3,27.3 46.7,30 44.2,35.3C44,35.8 45.2,36.8 45.9,36.2C48.2,34.3 51,33.5 54,33.5C56.9,33.5 59.7,34.3 62,36.2C62.7,36.8 63.9,35.8 63.7,35.3Z" style="fill:rgb(102,78,39);"/>
            <g id="Shape2" serif:id="Shape" transform="matrix(1,0,0,1,16.9,46.8)">
                <path d="M42.7,0L1.5,0C0.511,0 0,0.659 0,1.3C0.001,10.8 7.75,20.8 22.1,20.8C36.45,20.8 44.2,10.8 44.2,1.3C44.2,0.659 43.7,0 42.7,0Z" style="fill:rgb(102,78,39);"/>
                <path d="M34,7.8L22.1,7.8L10.2,7.8C9.25,7.8 9.1,8.21 9.1,8.9L9.1,14.1C9.1,25.5 14.9,31.2 22.1,31.2C29.3,31.2 35.1,25.5 35.1,14.1L35.1,8.9C35.1,8.21 35,7.8 34,7.8Z" style="fill:rgb(255,113,127);"/>
                <path d="M24,7.8L22.1,25.7L20.2,7.8L24,7.8Z" style="fill:rgb(226,89,108);"/>
            </g>
        </g>
    </g>
</svg>
